<svg width="28" height="28" viewBox="0 0 28 28" fill="none" xmlns="http://www.w3.org/2000/svg">
<path d="M9.00195 15.3672H13.3633V19.7285C13.3633 20.2734 13.8115 20.7305 14.3652 20.7305C14.9189 20.7305 15.3672 20.2734 15.3672 19.7285V15.3672H19.7285C20.2734 15.3672 20.7305 14.9189 20.7305 14.3652C20.7305 13.8115 20.2734 13.3633 19.7285 13.3633H15.3672V9.00195C15.3672 8.45703 14.9189 8 14.3652 8C13.8115 8 13.3633 8.45703 13.3633 9.00195V13.3633H9.00195C8.45703 13.3633 8 13.8115 8 14.3652C8 14.9189 8.45703 15.3672 9.00195 15.3672Z" fill="#1C1C1E"/>
</svg>
