<svg width="35" height="35" viewBox="0 0 35 35" fill="none" xmlns="http://www.w3.org/2000/svg">
<g filter="url(#filter0_i_432_251)">
<path d="M8.75 6.78799C15.5835 5.57431 19.4162 5.45729 26.25 6.78799L24.7917 19.913C23.5422 23.7019 21.6556 25.7608 17.5 29.3922C13.9128 26.7412 12.2546 24.7557 10.2083 19.913L8.75 6.78799Z" fill="url(#paint0_linear_432_251)"/>
<path d="M8.75 6.78799C15.5835 5.57431 19.4162 5.45729 26.25 6.78799L24.7917 19.913C23.5422 23.7019 21.6556 25.7608 17.5 29.3922C13.9128 26.7412 12.2546 24.7557 10.2083 19.913L8.75 6.78799Z" fill="url(#paint1_linear_432_251)" fill-opacity="0.5"/>
<path d="M26.25 6.78799C19.4165 5.57431 15.5838 5.45729 8.75 6.78799L10.2083 19.913C11.4578 23.7019 13.3444 25.7608 17.5 29.3922C21.0872 26.7412 22.7454 24.7557 24.7917 19.913L26.25 6.78799Z" fill="url(#paint2_linear_432_251)"/>
<path d="M26.25 6.78799C19.4165 5.57431 15.5838 5.45729 8.75 6.78799L10.2083 19.913C11.4578 23.7019 13.3444 25.7608 17.5 29.3922C21.0872 26.7412 22.7454 24.7557 24.7917 19.913L26.25 6.78799Z" fill="url(#paint3_linear_432_251)" fill-opacity="0.5"/>
</g>
<g filter="url(#filter1_d_432_251)">
<path d="M10.4887 14.1293L10.4782 14.142L10.485 14.1562C11.4263 15.6304 14.1678 16.9915 17.341 15.3974L17.3461 15.3817L17.3512 15.366C15.7225 12.1548 12.704 11.6609 11.075 12.3404L11.0611 12.3478L11.0622 12.3643C11.081 12.6623 11.1329 12.8714 11.2184 13.0474C11.2982 13.2117 11.4068 13.346 11.5423 13.496C11.3445 13.5376 11.1778 13.5824 11.0166 13.6685C10.844 13.7606 10.6791 13.8993 10.4887 14.1293Z" fill="#FFDCF0" stroke="#8D8786" stroke-width="0.05"/>
<path d="M14.1246 21.6746L14.1334 21.6885L14.149 21.6863C15.8419 21.2466 17.9836 19.0599 17.4481 15.5494L17.4348 15.5397L17.4214 15.5301C13.8641 16.0867 12.4615 18.8049 12.6044 20.5641L12.6072 20.5796L12.6231 20.5837C12.9124 20.6578 13.1273 20.6731 13.3211 20.6462C13.5021 20.6211 13.6633 20.5593 13.8478 20.4768C13.8263 20.6778 13.8174 20.8502 13.8494 21.0301C13.8837 21.2227 13.9647 21.4224 14.1246 21.6746Z" fill="#FFDCF0" stroke="#8D8786" stroke-width="0.05"/>
<path d="M23.9154 12.3079L23.9164 12.2915L23.9025 12.284C22.2745 11.6447 19.2565 12.1549 17.6263 15.3097L17.6314 15.3254L17.6365 15.3411C20.8417 16.9817 23.5741 15.6071 24.4925 14.0999L24.4994 14.0857L24.4889 14.073C24.2985 13.843 24.1336 13.7043 23.961 13.6121C23.7998 13.5261 23.6331 13.4813 23.4353 13.4396C23.5708 13.2896 23.6793 13.1554 23.7592 12.9911C23.8446 12.815 23.8965 12.6059 23.9154 12.3079Z" fill="#FFDCF0" stroke="#8D8786" stroke-width="0.05"/>
<path d="M22.4233 20.5478L22.4393 20.5437L22.4421 20.5282C22.547 18.7823 21.1291 16.0697 17.625 15.4942L17.6117 15.5039L17.5983 15.5136C17.0285 19.0689 19.1802 21.2427 20.8974 21.6505L20.913 21.6526L20.9219 21.6387C21.0818 21.3865 21.1627 21.1868 21.197 20.9942C21.229 20.8143 21.2201 20.6419 21.1986 20.4409C21.3832 20.5235 21.5444 20.5852 21.7253 20.6103C21.9191 20.6372 22.1341 20.622 22.4233 20.5478Z" fill="#FFDCF0" stroke="#8D8786" stroke-width="0.05"/>
<path d="M16.5419 8.33941L16.5266 8.33334L16.5152 8.34425C15.4041 9.69503 14.9567 12.723 17.4533 15.2482H17.4698H17.4863C20.0371 12.7069 19.5741 9.68346 18.4245 8.34425L18.4131 8.33334L18.3978 8.33941C18.1202 8.44943 17.9373 8.5634 17.7963 8.69909C17.6647 8.82577 17.5706 8.97048 17.4698 9.14573C17.3691 8.97048 17.2749 8.82577 17.1433 8.69909C17.0023 8.5634 16.8195 8.44943 16.5419 8.33941Z" fill="#FFDCF0" stroke="#8D8786" stroke-width="0.05"/>
</g>
<defs>
<filter id="filter0_i_432_251" x="7.75" y="4.83334" width="18.5" height="24.5588" filterUnits="userSpaceOnUse" color-interpolation-filters="sRGB">
<feFlood flood-opacity="0" result="BackgroundImageFix"/>
<feBlend mode="normal" in="SourceGraphic" in2="BackgroundImageFix" result="shape"/>
<feColorMatrix in="SourceAlpha" type="matrix" values="0 0 0 0 0 0 0 0 0 0 0 0 0 0 0 0 0 0 127 0" result="hardAlpha"/>
<feOffset dx="-1" dy="-1"/>
<feGaussianBlur stdDeviation="0.5"/>
<feComposite in2="hardAlpha" operator="arithmetic" k2="-1" k3="1"/>
<feColorMatrix type="matrix" values="0 0 0 0 0.825 0 0 0 0 0.825 0 0 0 0 0.825 0 0 0 0.5 0"/>
<feBlend mode="normal" in2="shape" result="effect1_innerShadow_432_251"/>
</filter>
<filter id="filter1_d_432_251" x="4.37341" y="4.03334" width="26.2494" height="25.1628" filterUnits="userSpaceOnUse" color-interpolation-filters="sRGB">
<feFlood flood-opacity="0" result="BackgroundImageFix"/>
<feColorMatrix in="SourceAlpha" type="matrix" values="0 0 0 0 0 0 0 0 0 0 0 0 0 0 0 0 0 0 127 0" result="hardAlpha"/>
<feOffset dy="0.2"/>
<feGaussianBlur stdDeviation="1"/>
<feComposite in2="hardAlpha" operator="out"/>
<feColorMatrix type="matrix" values="0 0 0 0 1 0 0 0 0 1 0 0 0 0 1 0 0 0 0.5 0"/>
<feBlend mode="normal" in2="BackgroundImageFix" result="effect1_dropShadow_432_251"/>
<feBlend mode="normal" in="SourceGraphic" in2="effect1_dropShadow_432_251" result="shape"/>
</filter>
<linearGradient id="paint0_linear_432_251" x1="18.2292" y1="5.10418" x2="17.5" y2="30.625" gradientUnits="userSpaceOnUse">
<stop stop-color="#DEDEDE"/>
<stop offset="0.28125" stop-color="#D9D9D9"/>
<stop offset="0.541667" stop-color="#EBEBEC"/>
<stop offset="1" stop-color="#D3D3D3"/>
</linearGradient>
<linearGradient id="paint1_linear_432_251" x1="9.47917" y1="17.5" x2="25.5208" y2="17.5" gradientUnits="userSpaceOnUse">
<stop stop-color="white"/>
<stop offset="0.479167" stop-color="#C8C8C8"/>
<stop offset="1" stop-color="#BEBEBE"/>
</linearGradient>
<linearGradient id="paint2_linear_432_251" x1="18.2292" y1="5.10418" x2="17.5" y2="30.625" gradientUnits="userSpaceOnUse">
<stop stop-color="#DEDEDE"/>
<stop offset="0.28125" stop-color="#D9D9D9"/>
<stop offset="0.541667" stop-color="#EBEBEC"/>
<stop offset="1" stop-color="#D3D3D3"/>
</linearGradient>
<linearGradient id="paint3_linear_432_251" x1="9.47917" y1="17.5" x2="25.5208" y2="17.5" gradientUnits="userSpaceOnUse">
<stop stop-color="white"/>
<stop offset="0.479167" stop-color="#C8C8C8"/>
<stop offset="1" stop-color="#BEBEBE"/>
</linearGradient>
</defs>
</svg>
