<svg width="48" height="47" viewBox="0 0 48 47" fill="none" xmlns="http://www.w3.org/2000/svg">
<rect x="0.529434" y="23.533" width="33" height="33" rx="5" transform="rotate(-45 0.529434 23.533)" fill="#D3D3D3"/>
<path d="M30.3614 28.8258C30.3614 29.3781 29.9137 29.8258 29.3614 29.8258L18.4242 29.8258C17.8719 29.8258 17.4242 29.3781 17.4242 28.8258C17.4242 28.2735 17.8719 27.8258 18.4242 27.8258L29.3614 27.8258C29.9137 27.8258 30.3614 28.2735 30.3614 28.8258Z" fill="black"/>
<path d="M30.3614 22.9453C30.3614 23.4976 29.9137 23.9453 29.3614 23.9453L18.4242 23.9453C17.8719 23.9453 17.4242 23.4976 17.4242 22.9453C17.4242 22.393 17.8719 21.9453 18.4242 21.9453L29.3614 21.9453C29.9137 21.9453 30.3614 22.393 30.3614 22.9453Z" fill="black"/>
<path d="M30.3614 17.0647C30.3614 17.617 29.9137 18.0647 29.3614 18.0647L18.4242 18.0647C17.8719 18.0647 17.4242 17.617 17.4242 17.0647C17.4242 16.5124 17.8719 16.0647 18.4242 16.0647L29.3614 16.0647C29.9137 16.0647 30.3614 16.5124 30.3614 17.0647Z" fill="black"/>
<rect x="24.3447" y="23.3899" width="0.685714" height="0.0378539" rx="0.018927" transform="rotate(-45 24.3447 23.3899)" fill="#58473E"/>
<rect x="24.3715" y="22.905" width="0.685714" height="0.0378539" rx="0.018927" transform="rotate(45 24.3715 22.905)" fill="#58473E"/>
</svg>
