<svg width="36" height="36" viewBox="0 0 36 36" fill="none" xmlns="http://www.w3.org/2000/svg">
<path d="M9.62527 4.32439L24.1074 4.32439L31.3485 16.8663L24.1074 29.4082L9.62527 29.4082L2.3842 16.8663L9.62527 4.32439Z" fill="url(#paint0_radial_432_310)"/>
<path d="M4.55734 16.8663L10.7118 6.20646L23.0207 6.20646L29.1752 16.8663L23.0207 27.5261L10.7118 27.5261L4.55734 16.8663Z" fill="url(#paint1_linear_432_310)" stroke="url(#paint2_radial_432_310)" stroke-width="0.8"/>
<path d="M9.32677 10.3072L9.32247 10.2795L9.34733 10.2664C12.2934 9.13715 17.9983 9.91164 21.4932 15.2004L21.4859 15.2271L21.4786 15.2538C15.7333 18.1231 10.4372 15.878 8.50707 13.3554L8.49225 13.3316L8.51002 13.3098C8.83231 12.9152 9.1201 12.6757 9.42897 12.5148C9.71733 12.3645 10.022 12.2838 10.3851 12.2075C10.1107 11.9578 9.88887 11.7339 9.71636 11.4582C9.53158 11.163 9.40474 10.8108 9.32677 10.3072Z" fill="url(#paint3_linear_432_310)" stroke="#341F19" stroke-width="0.01"/>
<path d="M25.4515 16.3462L25.4512 16.3181L25.4245 16.3093C22.3327 15.6769 16.8302 17.3744 14.2468 23.1647L14.2583 23.1899L14.2699 23.215C20.4084 25.1065 25.267 22.0248 26.7589 19.2199L26.7697 19.1939L26.7486 19.1754C26.366 18.8387 26.0428 18.6495 25.7117 18.5412C25.4026 18.4401 25.0888 18.4103 24.718 18.3944C24.9479 18.1031 25.1302 17.8459 25.2553 17.5457C25.3894 17.2241 25.4569 16.8558 25.4515 16.3462Z" fill="url(#paint4_linear_432_310)" stroke="#341F19" stroke-width="0.01"/>
<defs>
<radialGradient id="paint0_radial_432_310" cx="0" cy="0" r="1" gradientUnits="userSpaceOnUse" gradientTransform="translate(16.8663 16.8663) rotate(60) scale(14.4821)">
<stop offset="0.654991" stop-color="#94543A"/>
<stop offset="1" stop-color="#2F1F1A"/>
</radialGradient>
<linearGradient id="paint1_linear_432_310" x1="10.4809" y1="5.80646" x2="23.2517" y2="27.9261" gradientUnits="userSpaceOnUse">
<stop stop-color="#EBDFBF"/>
<stop offset="1" stop-color="#FAFFF8"/>
</linearGradient>
<radialGradient id="paint2_radial_432_310" cx="0" cy="0" r="1" gradientUnits="userSpaceOnUse" gradientTransform="translate(16.8663 16.8663) rotate(60) scale(12.7708)">
<stop offset="0.0438663" stop-color="#E2FFD9"/>
<stop offset="1" stop-color="#8B7971"/>
</radialGradient>
<linearGradient id="paint3_linear_432_310" x1="8.89983" y1="11.8332" x2="21.4784" y2="15.2547" gradientUnits="userSpaceOnUse">
<stop stop-color="#F2FFD8"/>
<stop offset="1" stop-color="#001D07"/>
</linearGradient>
<linearGradient id="paint4_linear_432_310" x1="26.1224" y1="17.7821" x2="14.2703" y2="23.2159" gradientUnits="userSpaceOnUse">
<stop stop-color="#F2FFD8"/>
<stop offset="1" stop-color="#001D07"/>
</linearGradient>
</defs>
</svg>
