<svg width="35" height="35" viewBox="0 0 35 35" fill="none" xmlns="http://www.w3.org/2000/svg">
<path d="M21.875 12.377C23.2768 12.8552 24.289 14.2941 25.1508 16.4371C26.6858 20.2543 26.0116 25.1098 22.3025 26.8901C18.5168 28.7072 14.1372 27.9906 11.2867 25.5209C9.07967 23.6086 8.87615 20.3109 9.54334 17.4679C9.68096 16.8814 9.88231 16.3071 10.2328 15.6652C11.5193 13.1688 11.9222 11.0343 11.6912 9.47918C12.5909 9.81719 13.1622 10.5585 13.5019 11.3488C13.8472 10.054 13.7169 8.75189 13.1495 5.83334C16.6715 5.94821 21.2725 9.89591 22.3714 16.0229C22.8893 14.1647 22.1695 13.3591 21.875 12.377Z" fill="url(#paint0_linear_432_225)"/>
<path d="M13.8786 13.8542C13.9896 13.4068 13.9276 12.3393 13.5019 11.3488M22.6042 18.2104C22.5771 17.4543 22.4972 16.7243 22.3714 16.0229M13.5019 11.3488C13.1622 10.5585 12.5909 9.81719 11.6912 9.47918C11.9222 11.0343 11.5193 13.1688 10.2328 15.6652C9.88231 16.3071 9.68096 16.8814 9.54334 17.4679C8.87615 20.3109 9.07967 23.6086 11.2867 25.5209C14.1372 27.9906 18.5168 28.7072 22.3025 26.8901C26.0116 25.1098 26.6858 20.2543 25.1508 16.4371C24.289 14.2941 23.2768 12.8552 21.875 12.377C22.1695 13.3591 22.8893 14.1647 22.3714 16.0229M13.5019 11.3488C13.8472 10.054 13.7169 8.75189 13.1495 5.83334C16.6715 5.94821 21.2725 9.89591 22.3714 16.0229" stroke="#F0AB87" stroke-width="0.1"/>
<path d="M13.6101 20.9698L13.5972 20.9716L13.5947 20.9844C13.4833 22.4443 14.5842 24.8791 17.399 25.7333L17.41 25.7265L17.4209 25.7198C17.9347 22.7844 16.2341 20.7261 14.8566 20.2016L14.8441 20.1981L14.8367 20.2089C14.704 20.4045 14.6357 20.5642 14.6051 20.7229C14.5765 20.8711 14.5811 21.0173 14.5953 21.1889C14.4479 21.0999 14.3189 21.0309 14.1735 20.9907C14.0177 20.9476 13.8443 20.9378 13.6101 20.9698Z" fill="url(#paint1_linear_432_225)"/>
<path d="M18.9876 16.0362L18.9803 16.031L18.9731 16.0363C18.2361 16.7181 17.6535 18.4553 18.6697 20.1977L18.6784 20.1994L18.687 20.2011C20.3146 18.9655 20.4201 17.1378 19.9725 16.2316L19.9678 16.224L19.9591 16.226C19.8011 16.2624 19.6923 16.3108 19.6029 16.3763C19.5194 16.4374 19.4535 16.513 19.3806 16.6059C19.348 16.4924 19.3154 16.3975 19.2611 16.3095C19.2029 16.2152 19.1203 16.1293 18.9876 16.0362Z" fill="url(#paint2_linear_432_225)"/>
<defs>
<linearGradient id="paint0_linear_432_225" x1="17.9312" y1="5.81465" x2="17.9312" y2="27.9069" gradientUnits="userSpaceOnUse">
<stop stop-color="#FDEF81"/>
<stop offset="1" stop-color="#F3C2B0" stop-opacity="0.5"/>
</linearGradient>
<linearGradient id="paint1_linear_432_225" x1="14.2319" y1="20.5778" x2="17.4212" y2="25.7195" gradientUnits="userSpaceOnUse">
<stop stop-color="#FEC724" stop-opacity="0.58"/>
<stop offset="0.447917" stop-color="#F59F22" stop-opacity="0.33"/>
<stop offset="1" stop-color="#DB2E1B" stop-opacity="0.2"/>
</linearGradient>
<linearGradient id="paint2_linear_432_225" x1="19.483" y1="16.1293" x2="18.6873" y2="20.2012" gradientUnits="userSpaceOnUse">
<stop stop-color="#FEC724" stop-opacity="0.58"/>
<stop offset="0.447917" stop-color="#F59F22" stop-opacity="0.33"/>
<stop offset="1" stop-color="#DB2E1B" stop-opacity="0.2"/>
</linearGradient>
</defs>
</svg>
