<svg width="19" height="28" viewBox="0 0 19 28" fill="none" xmlns="http://www.w3.org/2000/svg">
<path d="M11.6158 17.3412L11.6172 17.3227V17.3042C11.6172 17.2662 11.6172 16.9679 11.6204 16.667C11.622 16.5162 11.6244 16.3673 11.6279 16.2511C11.6296 16.1926 11.6316 16.1458 11.6336 16.1126C11.634 16.1055 11.6344 16.0997 11.6348 16.0951L11.6394 16.077L11.6422 16.0298C11.6581 15.7634 11.7131 15.6186 11.775 15.5234C11.8387 15.4254 11.9398 15.3329 12.1308 15.2185C12.2782 15.1303 12.4461 15.0472 12.6594 14.9417C12.7389 14.9023 12.8246 14.8599 12.9179 14.8129C13.2486 14.6465 13.638 14.44 14.0792 14.1523C15.367 13.3313 16.4769 12.5151 17.2602 11.5024C18.0585 10.4703 18.5 9.25817 18.5 7.68499C18.5 5.39495 17.443 3.57966 15.7807 2.35197C14.1306 1.13336 11.898 0.5 9.51294 0.5C4.97249 0.5 1.68511 2.54663 0.786172 5.22524C0.606534 5.73101 0.5 6.60469 0.5 7.09814C0.5 7.92456 0.941961 8.54228 1.52527 8.93325C2.0973 9.31665 2.82329 9.5 3.5 9.5C3.97849 9.5 4.36522 9.36883 4.6672 9.11266C4.95548 8.86811 5.11995 8.54781 5.23522 8.26278C5.29358 8.11846 5.3444 7.96966 5.3908 7.83263C5.39397 7.82326 5.39713 7.81394 5.40026 7.80468C5.44442 7.67421 5.48519 7.55374 5.53043 7.43617C5.6275 7.18391 5.72985 6.98791 5.86712 6.83945L5.89614 6.80806L5.91941 6.77221C6.58669 5.74409 7.73756 5.58243 9.28006 5.58243C10.2115 5.58243 10.9359 5.84368 11.4185 6.25194C11.8937 6.65392 12.1697 7.22656 12.1697 7.94014C12.1697 8.5731 11.9596 9.05543 11.4846 9.5682C10.9845 10.1081 10.214 10.6571 9.10443 11.4036L9.1044 11.4036L9.09837 11.4078C8.82829 11.5953 8.58609 11.7545 8.3498 11.9097C8.17629 12.0237 8.00597 12.1357 7.83013 12.2552C7.43866 12.5213 7.06625 12.7957 6.7487 13.1151C6.08339 13.7844 5.70091 14.611 5.70091 15.8822V16.9725C5.70091 17.8079 5.96527 18.5105 6.52844 18.9943C7.0787 19.467 7.84065 19.6668 8.71081 19.6668C10.3314 19.6668 11.5144 18.708 11.6158 17.3412ZM8.65906 27.5C10.543 27.5 12.1865 26.1483 12.1865 24.1933C12.1865 22.2694 10.5749 20.8867 8.65906 20.8867C6.74896 20.8867 5.10578 22.2641 5.10578 24.1933C5.10578 26.1225 6.74896 27.5 8.65906 27.5Z" fill="#1C1C1E" stroke="#1C1C1E"/>
</svg>
