<svg width="35" height="35" viewBox="0 0 35 35" fill="none" xmlns="http://www.w3.org/2000/svg">
<circle cx="17.5" cy="17.5" r="13.075" stroke="#FF8000" stroke-width="0.1"/>
<path d="M14.4551 7.66152L14.4454 7.65279L14.434 7.65913C13.2466 8.51582 12.0963 10.9277 13.2595 13.6296L13.2717 13.6336L13.2839 13.6375C15.8583 12.1365 16.3341 9.50933 15.8462 8.11843L15.8407 8.10661L15.8278 8.10798C15.5927 8.13275 15.4266 8.18359 15.2856 8.26258C15.154 8.33633 15.0452 8.4341 14.9232 8.55568C14.8961 8.38562 14.8657 8.24256 14.8026 8.10549C14.735 7.95867 14.6306 7.81985 14.4551 7.66152Z" fill="url(#paint0_linear_432_199)"/>
<path d="M8.046 10.6629L8.03471 10.6694L8.03721 10.6822C8.48505 12.0762 10.4234 13.9155 13.3525 13.6442L13.3601 13.6338L13.3676 13.6234C12.7356 10.7112 10.384 9.44684 8.91043 9.48103L8.89749 9.48259L8.89478 9.49534C8.8457 9.72657 8.84273 9.90025 8.87428 10.0588C8.90374 10.2067 8.96311 10.3404 9.04106 10.494C8.87095 10.4672 8.72547 10.452 8.57562 10.4696C8.4151 10.4885 8.25082 10.5449 8.046 10.6629Z" fill="url(#paint1_linear_432_199)"/>
<path d="M8.91947 17.6856L8.92216 17.6983L8.9351 17.6999C10.3993 17.7047 12.7476 16.4296 13.3947 13.5601L13.3871 13.5497L13.3796 13.5393C10.4146 13.2404 8.48543 15.0862 8.06257 16.4982L8.06006 16.511L8.07135 16.5175C8.2761 16.6357 8.44036 16.6922 8.60086 16.7111C8.7507 16.7289 8.89619 16.7137 9.06631 16.687C8.98828 16.8405 8.92883 16.9742 8.89929 17.1221C8.86764 17.2806 8.87051 17.4543 8.91947 17.6856Z" fill="url(#paint2_linear_432_199)"/>
<path d="M15.8685 19.0259L15.8814 19.0273L15.8869 19.0155C16.344 17.6245 15.8569 14.9971 13.3278 13.4949L13.3156 13.4989L13.3034 13.5028C12.1029 16.2304 13.2622 18.6355 14.4745 19.474L14.4858 19.4803L14.4955 19.4716C14.6712 19.3134 14.7756 19.1746 14.8433 19.0278C14.9064 18.8908 14.937 18.7477 14.9642 18.5777C15.0861 18.6993 15.1948 18.7972 15.3264 18.871C15.4673 18.9501 15.6334 19.001 15.8685 19.0259Z" fill="url(#paint3_linear_432_199)"/>
<path d="M19.2905 12.831L19.2958 12.8191L19.2863 12.8102C18.1046 11.9457 15.4553 11.597 13.2451 13.5382L13.2451 13.551L13.2451 13.5639C15.4682 15.5484 18.1138 15.1891 19.2858 14.2953L19.2954 14.2864L19.2901 14.2745C19.1939 14.0586 19.0942 13.9163 18.9755 13.8066C18.8647 13.7042 18.7381 13.631 18.5848 13.5525C18.7381 13.4742 18.8648 13.401 18.9757 13.2987C19.0944 13.1891 19.1942 13.0469 19.2905 12.831Z" fill="url(#paint4_linear_432_199)"/>
<path d="M16.0587 22.5173L16.0543 22.5296L16.0645 22.5377C17.309 23.3091 19.9772 23.4536 22.0321 21.3487L22.0311 21.3359L22.0301 21.3231C19.6614 19.5148 17.0511 20.076 15.951 21.057L15.9422 21.0666L15.9484 21.078C16.0609 21.2859 16.1712 21.4201 16.2979 21.5204C16.4163 21.614 16.5481 21.6773 16.707 21.7438C16.5601 21.8336 16.4394 21.9163 16.3367 22.0268C16.2267 22.1452 16.1382 22.2947 16.0587 22.5173Z" fill="url(#paint5_linear_432_199)"/>
<path d="M21.2752 27.2994L21.2855 27.3074L21.2964 27.3002C22.4146 26.355 23.3766 23.862 22.0097 21.2573L21.9972 21.2542L21.9847 21.2512C19.533 22.9452 19.2601 25.6011 19.8531 26.9505L19.8595 26.9619L19.8723 26.9595C20.1048 26.9168 20.2665 26.8534 20.4011 26.7638C20.5267 26.6802 20.6276 26.5744 20.7399 26.4438C20.78 26.6113 20.8213 26.7516 20.8947 26.8834C20.9733 27.0246 21.0881 27.155 21.2752 27.2994Z" fill="url(#paint6_linear_432_199)"/>
<path d="M27.4359 23.8167L27.4467 23.8093L27.4432 23.7968C26.8898 22.4412 24.8161 20.7559 21.9165 21.2511L21.9097 21.262L21.903 21.2729C22.7565 24.1281 25.198 25.2084 26.6647 25.0614L26.6775 25.0588L26.6792 25.0459C26.7104 24.8116 26.7 24.6382 26.6564 24.4826C26.6157 24.3373 26.5463 24.2085 26.4568 24.0614C26.6284 24.0751 26.7746 24.0791 26.9227 24.05C27.0813 24.0189 27.2408 23.9501 27.4359 23.8167Z" fill="url(#paint7_linear_432_199)"/>
<path d="M26.0272 16.8811L26.0236 16.8686L26.0106 16.868C24.5503 16.9754 22.3067 18.4269 21.8816 21.3376L21.8899 21.3474L21.8982 21.3571C24.8774 21.4278 26.6593 19.4395 26.9726 17.9992L26.9742 17.9863L26.9624 17.9806C26.7492 17.8786 26.5811 17.8348 26.4196 17.8282C26.2689 17.822 26.125 17.8483 25.9574 17.8879C26.0234 17.7289 26.0724 17.5911 26.0906 17.4413C26.11 17.2808 26.0938 17.1079 26.0272 16.8811Z" fill="url(#paint8_linear_432_199)"/>
<path d="M18.9945 16.0779L18.9815 16.0775L18.9769 16.0897C18.6278 17.5117 19.3149 20.094 21.9518 21.3978L21.9637 21.3929L21.9755 21.388C22.9633 18.5765 21.623 16.2674 20.3501 15.5243L20.3382 15.5188L20.3292 15.5283C20.1663 15.6995 20.0727 15.8459 20.0165 15.9974C19.9641 16.1389 19.9446 16.2838 19.9305 16.4555C19.7997 16.3435 19.6837 16.2543 19.5469 16.1908C19.4003 16.1228 19.2308 16.0847 18.9945 16.0779Z" fill="url(#paint9_linear_432_199)"/>
<defs>
<linearGradient id="paint0_linear_432_199" x1="15.1557" y1="7.88382" x2="13.2843" y2="13.6377" gradientUnits="userSpaceOnUse">
<stop stop-color="#DB2E1B" stop-opacity="0.5"/>
<stop offset="1" stop-color="#B3202E"/>
</linearGradient>
<linearGradient id="paint1_linear_432_199" x1="8.47392" y1="10.0652" x2="13.3679" y2="13.6231" gradientUnits="userSpaceOnUse">
<stop stop-color="#DB2E1B" stop-opacity="0.5"/>
<stop offset="1" stop-color="#B3202E"/>
</linearGradient>
<linearGradient id="paint2_linear_432_199" x1="8.4833" y1="17.0939" x2="13.3793" y2="13.5389" gradientUnits="userSpaceOnUse">
<stop stop-color="#DB2E1B" stop-opacity="0.5"/>
<stop offset="1" stop-color="#B3202E"/>
</linearGradient>
<linearGradient id="paint3_linear_432_199" x1="15.171" y1="19.2579" x2="13.3029" y2="13.503" gradientUnits="userSpaceOnUse">
<stop stop-color="#DB2E1B" stop-opacity="0.5"/>
<stop offset="1" stop-color="#B3202E"/>
</linearGradient>
<linearGradient id="paint4_linear_432_199" x1="19.2956" y1="13.5661" x2="13.2451" y2="13.5643" gradientUnits="userSpaceOnUse">
<stop stop-color="#DB2E1B" stop-opacity="0.5"/>
<stop offset="1" stop-color="#B3202E"/>
</linearGradient>
<linearGradient id="paint5_linear_432_199" x1="15.9972" y1="21.7848" x2="22.0301" y2="21.3226" gradientUnits="userSpaceOnUse">
<stop stop-color="#DB2E1B" stop-opacity="0.5"/>
<stop offset="1" stop-color="#B3202E"/>
</linearGradient>
<linearGradient id="paint6_linear_432_199" x1="20.5596" y1="27.1315" x2="21.9843" y2="21.2511" gradientUnits="userSpaceOnUse">
<stop stop-color="#DB2E1B" stop-opacity="0.5"/>
<stop offset="1" stop-color="#B3202E"/>
</linearGradient>
<linearGradient id="paint7_linear_432_199" x1="27.0551" y1="24.4454" x2="21.9028" y2="21.2733" gradientUnits="userSpaceOnUse">
<stop stop-color="#DB2E1B" stop-opacity="0.5"/>
<stop offset="1" stop-color="#B3202E"/>
</linearGradient>
<linearGradient id="paint8_linear_432_199" x1="26.5075" y1="17.4376" x2="21.8985" y2="21.3575" gradientUnits="userSpaceOnUse">
<stop stop-color="#DB2E1B" stop-opacity="0.5"/>
<stop offset="1" stop-color="#B3202E"/>
</linearGradient>
<linearGradient id="paint9_linear_432_199" x1="19.6721" y1="15.7931" x2="21.976" y2="21.3879" gradientUnits="userSpaceOnUse">
<stop stop-color="#DB2E1B" stop-opacity="0.5"/>
<stop offset="1" stop-color="#B3202E"/>
</linearGradient>
</defs>
</svg>
