<svg width="35" height="41" viewBox="0 0 35 41" fill="none" xmlns="http://www.w3.org/2000/svg">
<path d="M14.6757 5.69445L16.7306 7.68458C7.99337 7.81215 1.00002 14.7283 1.00002 23.3902C1.00002 32.1404 8.16671 39.1545 17.028 39.1545C25.8875 39.1545 33.0391 32.1391 33.0391 23.3902C33.0391 22.6601 32.7742 21.9821 32.273 21.4855C31.7722 20.9893 31.0913 20.7293 30.3586 20.7293C29.6298 20.7293 28.9603 20.9977 28.4751 21.5039C27.9936 22.0062 27.7531 22.6797 27.7531 23.3902C27.7531 29.2167 22.9965 33.9209 17.028 33.9209C11.0558 33.9209 6.29506 29.2161 6.29506 23.3902C6.29506 17.5266 11.0174 12.854 16.9765 12.854C17.2475 12.854 17.5118 12.8594 17.768 12.8702L14.6887 15.8589L14.6767 15.8705L14.665 15.8826C14.2195 16.345 13.9226 16.9514 13.9226 17.6746C13.9226 19.1461 15.0839 20.2624 16.5299 20.2624C17.2356 20.2624 17.89 20.0304 18.3887 19.5179L25.2814 12.7029C25.8457 12.1659 26.0941 11.5043 26.0941 10.7951C26.0941 10.0902 25.8061 9.40307 25.2879 8.8966L18.3985 2.03092C17.8957 1.4914 17.2247 1.25415 16.5299 1.25415C15.0558 1.25415 13.9226 2.43149 13.9226 3.87788C13.9226 4.59812 14.2166 5.19691 14.6346 5.65231L14.6545 5.67399L14.6757 5.69445Z" fill="black" stroke="black" stroke-width="2"/>
</svg>
