<svg width="76" height="30" viewBox="0 0 76 30" fill="none" xmlns="http://www.w3.org/2000/svg">
<g clip-path="url(#clip0_233_3864)">
<rect width="76" height="30" rx="15" fill="#F7F8FC"/>
<rect x="0.5" y="0.5" width="75" height="29" rx="14.5" stroke="#F0F1F2"/>
<path d="M46.6344 14.36H52.6044V16.49H46.6344V22.67H44.4744V16.49H38.5044V14.36H44.4744V8.15H46.6344V14.36ZM64.8224 26H62.2424V11.03C62.2424 10.45 62.2424 9.96 62.2424 9.56C62.2624 9.16 62.2824 8.79 62.3024 8.45C62.3224 8.09 62.3424 7.72 62.3624 7.34C62.0424 7.66 61.7524 7.93 61.4924 8.15C61.2324 8.37 60.9024 8.65 60.5024 8.99L58.2224 10.85L56.8424 9.08L62.6324 4.58H64.8224V26Z" fill="#CF6379"/>
<path d="M8.35423 8.79294L8.29585 8.82267L8.30509 8.88753C10.1908 16.0024 19.444 25.7409 34.2197 25.1406L34.2603 25.0905L34.3009 25.0403C31.8854 10.2552 20.4084 3.29607 13.0015 3.08436L12.9361 3.08885L12.9192 3.15214C12.6126 4.30029 12.5525 5.17143 12.6697 5.97541C12.7791 6.72602 13.0424 7.41259 13.3938 8.20376C12.5467 8.02508 11.8204 7.91074 11.0634 7.96026C10.2527 8.01329 9.41321 8.2537 8.35423 8.79294Z" fill="#FFCCE9"/>
</g>
<defs>
<clipPath id="clip0_233_3864">
<rect width="76" height="30" rx="15" fill="white"/>
</clipPath>
</defs>
</svg>
